<mxfile host="app.diagrams.net" agent="Mozilla/5.0 (Windows NT 10.0; Win64; x64) AppleWebKit/537.36 (KHTML, like Gecko) Chrome/131.0.0.0 Safari/537.36" version="26.0.2">
  <diagram name="Page-1" id="5qk1M9Fl1hlWYoU_ZyAV">
    <mxGraphModel dx="1302" dy="811" grid="1" gridSize="10" guides="1" tooltips="1" connect="1" arrows="1" fold="1" page="1" pageScale="1" pageWidth="850" pageHeight="1100" math="0" shadow="0">
      <root>
        <mxCell id="0" />
        <mxCell id="1" parent="0" />
        <mxCell id="C4_qE7LHH-83N8kk69I4-160" value="" style="ellipse;whiteSpace=wrap;html=1;aspect=fixed;fillColor=none;dashed=1;" vertex="1" parent="1">
          <mxGeometry x="645" y="1630" width="210" height="210" as="geometry" />
        </mxCell>
        <mxCell id="C4_qE7LHH-83N8kk69I4-158" value="" style="shape=flexArrow;endArrow=classic;html=1;rounded=0;width=5;endSize=4.897674418604651;endWidth=6.976744186046512;fillColor=#d5e8d4;strokeColor=#82b366;entryX=0.087;entryY=0.226;entryDx=0;entryDy=0;entryPerimeter=0;" edge="1" parent="1" target="C4_qE7LHH-83N8kk69I4-160">
          <mxGeometry width="50" height="50" relative="1" as="geometry">
            <mxPoint x="750" y="1740" as="sourcePoint" />
            <mxPoint x="640" y="1690" as="targetPoint" />
          </mxGeometry>
        </mxCell>
        <mxCell id="C4_qE7LHH-83N8kk69I4-159" value="" style="shape=flexArrow;endArrow=classic;html=1;rounded=0;width=5;endSize=4.897674418604651;endWidth=6.976744186046512;fillColor=#f8cecc;strokeColor=#b85450;entryX=0.968;entryY=0.665;entryDx=0;entryDy=0;entryPerimeter=0;" edge="1" parent="1" target="C4_qE7LHH-83N8kk69I4-160">
          <mxGeometry width="50" height="50" relative="1" as="geometry">
            <mxPoint x="750" y="1740" as="sourcePoint" />
            <mxPoint x="860" y="1770" as="targetPoint" />
          </mxGeometry>
        </mxCell>
        <mxCell id="C4_qE7LHH-83N8kk69I4-157" value="" style="shape=flexArrow;endArrow=classic;html=1;rounded=0;width=5;endSize=4.897674418604651;endWidth=6.976744186046512;fillColor=#ffe6cc;strokeColor=#d79b00;entryX=0;entryY=1;entryDx=0;entryDy=0;entryPerimeter=0;" edge="1" parent="1" target="C4_qE7LHH-83N8kk69I4-156">
          <mxGeometry width="50" height="50" relative="1" as="geometry">
            <mxPoint x="750" y="1740" as="sourcePoint" />
            <mxPoint x="840" y="1660" as="targetPoint" />
          </mxGeometry>
        </mxCell>
        <mxCell id="C4_qE7LHH-83N8kk69I4-152" style="edgeStyle=orthogonalEdgeStyle;rounded=0;orthogonalLoop=1;jettySize=auto;html=1;" edge="1" parent="1" source="C4_qE7LHH-83N8kk69I4-145">
          <mxGeometry relative="1" as="geometry">
            <mxPoint x="460" y="1830" as="targetPoint" />
          </mxGeometry>
        </mxCell>
        <mxCell id="C4_qE7LHH-83N8kk69I4-145" value="USER EMB" style="rounded=0;whiteSpace=wrap;html=1;fillColor=#ffe6cc;strokeColor=#d79b00;" vertex="1" parent="1">
          <mxGeometry x="228" y="1800" width="182" height="60" as="geometry" />
        </mxCell>
        <mxCell id="C4_qE7LHH-83N8kk69I4-130" value="" style="rounded=0;whiteSpace=wrap;html=1;" vertex="1" parent="1">
          <mxGeometry x="215" y="1110" width="1150" height="380" as="geometry" />
        </mxCell>
        <mxCell id="C4_qE7LHH-83N8kk69I4-129" value="" style="rounded=0;whiteSpace=wrap;html=1;" vertex="1" parent="1">
          <mxGeometry x="268" y="710" width="1042" height="380" as="geometry" />
        </mxCell>
        <mxCell id="CBEwIlwH5FtXZjfvDgn--34" value="" style="rounded=0;whiteSpace=wrap;html=1;fillColor=#fff2cc;strokeColor=#d6b656;" parent="1" vertex="1">
          <mxGeometry x="1150" y="290" width="170" height="140" as="geometry" />
        </mxCell>
        <mxCell id="CBEwIlwH5FtXZjfvDgn--33" value="" style="rounded=0;whiteSpace=wrap;html=1;fillColor=#fff2cc;strokeColor=#d6b656;" parent="1" vertex="1">
          <mxGeometry x="900" y="430" width="420" height="110" as="geometry" />
        </mxCell>
        <mxCell id="CBEwIlwH5FtXZjfvDgn--32" value="" style="rounded=0;whiteSpace=wrap;html=1;fillColor=#fff2cc;strokeColor=#d6b656;" parent="1" vertex="1">
          <mxGeometry x="590" y="280" width="500" height="120" as="geometry" />
        </mxCell>
        <mxCell id="CBEwIlwH5FtXZjfvDgn--31" value="" style="rounded=0;whiteSpace=wrap;html=1;fillColor=#fff2cc;strokeColor=#d6b656;" parent="1" vertex="1">
          <mxGeometry x="258" y="319.5" width="184" height="121" as="geometry" />
        </mxCell>
        <mxCell id="CBEwIlwH5FtXZjfvDgn--21" style="edgeStyle=orthogonalEdgeStyle;rounded=0;orthogonalLoop=1;jettySize=auto;html=1;exitX=1;exitY=0.5;exitDx=0;exitDy=0;entryX=0;entryY=0.5;entryDx=0;entryDy=0;strokeWidth=2;fillColor=#e1d5e7;strokeColor=#9673a6;endSize=3;startSize=3;endArrow=openThin;endFill=0;" parent="1" source="CBEwIlwH5FtXZjfvDgn--1" target="CBEwIlwH5FtXZjfvDgn--2" edge="1">
          <mxGeometry relative="1" as="geometry" />
        </mxCell>
        <mxCell id="CBEwIlwH5FtXZjfvDgn--1" value="&lt;div style=&quot;font-size: 10px;&quot;&gt;Start:&lt;/div&gt;&lt;div style=&quot;font-size: 10px;&quot;&gt;Initialzie Population of Songs &amp;amp; User Embedding&lt;br style=&quot;font-size: 10px;&quot;&gt;&lt;/div&gt;" style="rounded=1;whiteSpace=wrap;html=1;fillColor=#e1d5e7;strokeColor=#9673a6;strokeWidth=1;fontFamily=Verdana;fontSize=10;fontStyle=0" parent="1" vertex="1">
          <mxGeometry x="110" y="350" width="120" height="60" as="geometry" />
        </mxCell>
        <mxCell id="CBEwIlwH5FtXZjfvDgn--22" style="edgeStyle=orthogonalEdgeStyle;rounded=0;orthogonalLoop=1;jettySize=auto;html=1;exitX=1;exitY=0.5;exitDx=0;exitDy=0;entryX=0;entryY=0.5;entryDx=0;entryDy=0;strokeWidth=2;fillColor=#e1d5e7;strokeColor=#9673a6;endSize=3;startSize=3;endArrow=openThin;endFill=0;" parent="1" source="CBEwIlwH5FtXZjfvDgn--2" target="CBEwIlwH5FtXZjfvDgn--4" edge="1">
          <mxGeometry relative="1" as="geometry" />
        </mxCell>
        <mxCell id="CBEwIlwH5FtXZjfvDgn--2" value="Recomendation Model Scores Songs" style="rounded=1;whiteSpace=wrap;html=1;fillColor=#e1d5e7;strokeColor=#9673a6;strokeWidth=1;fontFamily=Verdana;fontSize=10;fontStyle=0" parent="1" vertex="1">
          <mxGeometry x="290" y="350" width="120" height="60" as="geometry" />
        </mxCell>
        <mxCell id="CBEwIlwH5FtXZjfvDgn--24" value="" style="edgeStyle=orthogonalEdgeStyle;rounded=0;orthogonalLoop=1;jettySize=auto;html=1;strokeWidth=2;fillColor=#e1d5e7;strokeColor=#9673a6;endSize=3;startSize=3;endArrow=openThin;endFill=0;" parent="1" source="CBEwIlwH5FtXZjfvDgn--3" target="CBEwIlwH5FtXZjfvDgn--2" edge="1">
          <mxGeometry relative="1" as="geometry" />
        </mxCell>
        <mxCell id="CBEwIlwH5FtXZjfvDgn--3" value="Present Evolved Songs to User" style="rounded=1;whiteSpace=wrap;html=1;fillColor=#e1d5e7;strokeColor=#9673a6;strokeWidth=1;fontFamily=Verdana;fontSize=10;fontStyle=0" parent="1" vertex="1">
          <mxGeometry x="290" y="240" width="120" height="60" as="geometry" />
        </mxCell>
        <mxCell id="CBEwIlwH5FtXZjfvDgn--19" style="edgeStyle=orthogonalEdgeStyle;rounded=0;orthogonalLoop=1;jettySize=auto;html=1;exitX=0.5;exitY=0;exitDx=0;exitDy=0;entryX=0;entryY=0.5;entryDx=0;entryDy=0;strokeWidth=2;fillColor=#e1d5e7;strokeColor=#9673a6;endSize=3;startSize=3;endArrow=openThin;endFill=0;" parent="1" source="CBEwIlwH5FtXZjfvDgn--4" target="CBEwIlwH5FtXZjfvDgn--5" edge="1">
          <mxGeometry relative="1" as="geometry" />
        </mxCell>
        <mxCell id="CBEwIlwH5FtXZjfvDgn--20" value="Approach 1" style="edgeStyle=orthogonalEdgeStyle;rounded=0;orthogonalLoop=1;jettySize=auto;html=1;exitX=0.5;exitY=1;exitDx=0;exitDy=0;entryX=0;entryY=0.5;entryDx=0;entryDy=0;strokeWidth=2;fillColor=#e1d5e7;strokeColor=#9673a6;endSize=3;startSize=3;endArrow=openThin;endFill=0;" parent="1" source="CBEwIlwH5FtXZjfvDgn--4" target="CBEwIlwH5FtXZjfvDgn--10" edge="1">
          <mxGeometry relative="1" as="geometry" />
        </mxCell>
        <mxCell id="CBEwIlwH5FtXZjfvDgn--4" value="&lt;div style=&quot;font-size: 10px;&quot;&gt;Score&lt;/div&gt;&lt;div style=&quot;font-size: 10px;&quot;&gt;Songs&lt;br style=&quot;font-size: 10px;&quot;&gt;&lt;/div&gt;" style="rhombus;whiteSpace=wrap;html=1;fillColor=#e1d5e7;strokeColor=#9673a6;strokeWidth=1;fontFamily=Verdana;fontSize=10;fontStyle=0" parent="1" vertex="1">
          <mxGeometry x="460" y="340" width="80" height="80" as="geometry" />
        </mxCell>
        <mxCell id="CBEwIlwH5FtXZjfvDgn--17" value="&lt;div&gt;Approach 3&lt;/div&gt;" style="edgeStyle=orthogonalEdgeStyle;rounded=0;orthogonalLoop=1;jettySize=auto;html=1;exitX=1;exitY=0.5;exitDx=0;exitDy=0;entryX=0;entryY=0.5;entryDx=0;entryDy=0;strokeWidth=2;fillColor=#e1d5e7;strokeColor=#9673a6;endSize=3;startSize=3;endArrow=openThin;endFill=0;" parent="1" source="CBEwIlwH5FtXZjfvDgn--5" target="CBEwIlwH5FtXZjfvDgn--6" edge="1">
          <mxGeometry relative="1" as="geometry" />
        </mxCell>
        <mxCell id="CBEwIlwH5FtXZjfvDgn--18" value="Approach 2" style="edgeStyle=orthogonalEdgeStyle;rounded=0;orthogonalLoop=1;jettySize=auto;html=1;exitX=1;exitY=0.5;exitDx=0;exitDy=0;entryX=0;entryY=0.5;entryDx=0;entryDy=0;strokeWidth=2;fillColor=#e1d5e7;strokeColor=#9673a6;endSize=3;startSize=3;endArrow=openThin;endFill=0;" parent="1" source="CBEwIlwH5FtXZjfvDgn--5" target="CBEwIlwH5FtXZjfvDgn--8" edge="1">
          <mxGeometry relative="1" as="geometry" />
        </mxCell>
        <mxCell id="CBEwIlwH5FtXZjfvDgn--5" value="Simulate User Behavior" style="rhombus;whiteSpace=wrap;html=1;fillColor=#e1d5e7;strokeColor=#9673a6;strokeWidth=1;fontFamily=Verdana;fontSize=10;fontStyle=0" parent="1" vertex="1">
          <mxGeometry x="610" y="280" width="80" height="80" as="geometry" />
        </mxCell>
        <mxCell id="CBEwIlwH5FtXZjfvDgn--15" style="edgeStyle=orthogonalEdgeStyle;rounded=0;orthogonalLoop=1;jettySize=auto;html=1;exitX=1;exitY=0.5;exitDx=0;exitDy=0;entryX=0;entryY=0.5;entryDx=0;entryDy=0;strokeWidth=2;fillColor=#e1d5e7;strokeColor=#9673a6;endSize=3;startSize=3;endArrow=openThin;endFill=0;" parent="1" source="CBEwIlwH5FtXZjfvDgn--6" target="CBEwIlwH5FtXZjfvDgn--7" edge="1">
          <mxGeometry relative="1" as="geometry" />
        </mxCell>
        <mxCell id="CBEwIlwH5FtXZjfvDgn--6" value="Use feedback to accumulate positive/negative samples" style="rounded=1;whiteSpace=wrap;html=1;fillColor=#e1d5e7;strokeColor=#9673a6;strokeWidth=1;fontFamily=Verdana;fontSize=10;fontStyle=0" parent="1" vertex="1">
          <mxGeometry x="750" y="210" width="120" height="60" as="geometry" />
        </mxCell>
        <mxCell id="CBEwIlwH5FtXZjfvDgn--13" style="edgeStyle=orthogonalEdgeStyle;rounded=0;orthogonalLoop=1;jettySize=auto;html=1;exitX=1;exitY=0.5;exitDx=0;exitDy=0;entryX=0;entryY=0.5;entryDx=0;entryDy=0;strokeWidth=2;fillColor=#e1d5e7;strokeColor=#9673a6;endSize=3;startSize=3;endArrow=openThin;endFill=0;" parent="1" source="CBEwIlwH5FtXZjfvDgn--7" target="CBEwIlwH5FtXZjfvDgn--11" edge="1">
          <mxGeometry relative="1" as="geometry" />
        </mxCell>
        <mxCell id="CBEwIlwH5FtXZjfvDgn--7" value="Score Songs based on the estimated user embedding" style="rounded=1;whiteSpace=wrap;html=1;fillColor=#e1d5e7;strokeColor=#9673a6;strokeWidth=1;fontFamily=Verdana;fontSize=10;fontStyle=0" parent="1" vertex="1">
          <mxGeometry x="940" y="210" width="120" height="60" as="geometry" />
        </mxCell>
        <mxCell id="CBEwIlwH5FtXZjfvDgn--16" style="edgeStyle=orthogonalEdgeStyle;rounded=0;orthogonalLoop=1;jettySize=auto;html=1;exitX=1;exitY=0.5;exitDx=0;exitDy=0;entryX=0;entryY=0.5;entryDx=0;entryDy=0;strokeWidth=2;fillColor=#e1d5e7;strokeColor=#9673a6;endSize=3;startSize=3;endArrow=openThin;endFill=0;" parent="1" source="CBEwIlwH5FtXZjfvDgn--8" target="CBEwIlwH5FtXZjfvDgn--9" edge="1">
          <mxGeometry relative="1" as="geometry" />
        </mxCell>
        <mxCell id="CBEwIlwH5FtXZjfvDgn--8" value="Train Shallow Models to Mimic User Behaviour" style="rounded=1;whiteSpace=wrap;html=1;fillColor=#e1d5e7;strokeColor=#9673a6;strokeWidth=1;fontFamily=Verdana;fontSize=10;fontStyle=0" parent="1" vertex="1">
          <mxGeometry x="750" y="330" width="120" height="60" as="geometry" />
        </mxCell>
        <mxCell id="CBEwIlwH5FtXZjfvDgn--12" style="edgeStyle=orthogonalEdgeStyle;rounded=0;orthogonalLoop=1;jettySize=auto;html=1;exitX=1;exitY=0.5;exitDx=0;exitDy=0;entryX=0;entryY=0.5;entryDx=0;entryDy=0;strokeWidth=2;fillColor=#e1d5e7;strokeColor=#9673a6;endArrow=openThin;endFill=0;" parent="1" source="CBEwIlwH5FtXZjfvDgn--9" target="CBEwIlwH5FtXZjfvDgn--11" edge="1">
          <mxGeometry relative="1" as="geometry" />
        </mxCell>
        <mxCell id="CBEwIlwH5FtXZjfvDgn--9" value="Confidence output for Scoring (could also be casted as regression problem)" style="rounded=1;whiteSpace=wrap;html=1;fillColor=#e1d5e7;strokeColor=#9673a6;strokeWidth=1;fontFamily=Verdana;fontSize=10;fontStyle=0" parent="1" vertex="1">
          <mxGeometry x="940" y="330" width="120" height="60" as="geometry" />
        </mxCell>
        <mxCell id="CBEwIlwH5FtXZjfvDgn--14" style="edgeStyle=orthogonalEdgeStyle;rounded=0;orthogonalLoop=1;jettySize=auto;html=1;exitX=1;exitY=0.5;exitDx=0;exitDy=0;entryX=0;entryY=0.5;entryDx=0;entryDy=0;strokeWidth=2;fillColor=#e1d5e7;strokeColor=#9673a6;endSize=3;startSize=3;endArrow=openThin;endFill=0;" parent="1" source="CBEwIlwH5FtXZjfvDgn--10" target="CBEwIlwH5FtXZjfvDgn--11" edge="1">
          <mxGeometry relative="1" as="geometry" />
        </mxCell>
        <mxCell id="CBEwIlwH5FtXZjfvDgn--10" value="Direct Scoring to Train EA" style="rounded=1;whiteSpace=wrap;html=1;fillColor=#e1d5e7;strokeColor=#9673a6;strokeWidth=1;fontFamily=Verdana;fontSize=10;fontStyle=0" parent="1" vertex="1">
          <mxGeometry x="940" y="450" width="120" height="60" as="geometry" />
        </mxCell>
        <mxCell id="CBEwIlwH5FtXZjfvDgn--23" style="edgeStyle=orthogonalEdgeStyle;rounded=0;orthogonalLoop=1;jettySize=auto;html=1;exitX=0.5;exitY=0;exitDx=0;exitDy=0;entryX=0.5;entryY=0;entryDx=0;entryDy=0;strokeWidth=2;fillColor=#e1d5e7;strokeColor=#9673a6;endSize=3;startSize=3;endArrow=openThin;endFill=0;" parent="1" source="CBEwIlwH5FtXZjfvDgn--11" target="CBEwIlwH5FtXZjfvDgn--3" edge="1">
          <mxGeometry relative="1" as="geometry">
            <Array as="points">
              <mxPoint x="1240" y="80" />
              <mxPoint x="350" y="80" />
            </Array>
          </mxGeometry>
        </mxCell>
        <mxCell id="CBEwIlwH5FtXZjfvDgn--11" value="EA Evolution of Song Recomendations" style="rounded=1;whiteSpace=wrap;html=1;fillColor=#e1d5e7;strokeColor=#9673a6;strokeWidth=1;fontFamily=Verdana;fontSize=10;fontStyle=0" parent="1" vertex="1">
          <mxGeometry x="1180" y="330" width="120" height="60" as="geometry" />
        </mxCell>
        <mxCell id="CBEwIlwH5FtXZjfvDgn--36" value="Lollo" style="text;html=1;align=center;verticalAlign=middle;whiteSpace=wrap;rounded=0;" parent="1" vertex="1">
          <mxGeometry x="258" y="319.5" width="60" height="30" as="geometry" />
        </mxCell>
        <mxCell id="CBEwIlwH5FtXZjfvDgn--37" value="&lt;h1 style=&quot;margin-top: 0px;&quot;&gt;Dataset&lt;/h1&gt;&lt;p&gt;Quelli mandati da Davide&lt;/p&gt;&lt;p&gt;&lt;br&gt;&lt;/p&gt;" style="text;html=1;whiteSpace=wrap;overflow=hidden;rounded=0;" parent="1" vertex="1">
          <mxGeometry x="260" y="450" width="180" height="120" as="geometry" />
        </mxCell>
        <mxCell id="CBEwIlwH5FtXZjfvDgn--38" value="Laurence" style="text;html=1;align=center;verticalAlign=middle;whiteSpace=wrap;rounded=0;" parent="1" vertex="1">
          <mxGeometry x="1170" y="440.5" width="60" height="30" as="geometry" />
        </mxCell>
        <mxCell id="CBEwIlwH5FtXZjfvDgn--39" value="Ettore" style="text;html=1;align=center;verticalAlign=middle;whiteSpace=wrap;rounded=0;" parent="1" vertex="1">
          <mxGeometry x="780" y="289.5" width="60" height="30" as="geometry" />
        </mxCell>
        <mxCell id="CBEwIlwH5FtXZjfvDgn--40" value="Davide" style="text;html=1;align=center;verticalAlign=middle;whiteSpace=wrap;rounded=0;" parent="1" vertex="1">
          <mxGeometry x="1163" y="425" width="60" height="30" as="geometry" />
        </mxCell>
        <mxCell id="C4_qE7LHH-83N8kk69I4-1" value="&lt;b&gt;&lt;font style=&quot;font-size: 18px;&quot;&gt;Final User experience&lt;/font&gt;&lt;/b&gt;" style="text;html=1;align=center;verticalAlign=middle;whiteSpace=wrap;rounded=0;" vertex="1" parent="1">
          <mxGeometry x="640" y="720" width="300" height="30" as="geometry" />
        </mxCell>
        <mxCell id="C4_qE7LHH-83N8kk69I4-36" style="edgeStyle=orthogonalEdgeStyle;rounded=0;orthogonalLoop=1;jettySize=auto;html=1;" edge="1" parent="1" source="C4_qE7LHH-83N8kk69I4-2" target="C4_qE7LHH-83N8kk69I4-10">
          <mxGeometry relative="1" as="geometry">
            <Array as="points">
              <mxPoint x="560" y="850" />
              <mxPoint x="560" y="790" />
            </Array>
          </mxGeometry>
        </mxCell>
        <mxCell id="C4_qE7LHH-83N8kk69I4-37" style="edgeStyle=orthogonalEdgeStyle;rounded=0;orthogonalLoop=1;jettySize=auto;html=1;" edge="1" parent="1" source="C4_qE7LHH-83N8kk69I4-2" target="C4_qE7LHH-83N8kk69I4-11">
          <mxGeometry relative="1" as="geometry">
            <Array as="points">
              <mxPoint x="560" y="850" />
              <mxPoint x="560" y="830" />
            </Array>
          </mxGeometry>
        </mxCell>
        <mxCell id="C4_qE7LHH-83N8kk69I4-38" style="edgeStyle=orthogonalEdgeStyle;rounded=0;orthogonalLoop=1;jettySize=auto;html=1;" edge="1" parent="1" source="C4_qE7LHH-83N8kk69I4-2" target="C4_qE7LHH-83N8kk69I4-35">
          <mxGeometry relative="1" as="geometry">
            <Array as="points">
              <mxPoint x="560" y="850" />
              <mxPoint x="560" y="870" />
            </Array>
          </mxGeometry>
        </mxCell>
        <mxCell id="C4_qE7LHH-83N8kk69I4-39" style="edgeStyle=orthogonalEdgeStyle;rounded=0;orthogonalLoop=1;jettySize=auto;html=1;" edge="1" parent="1" source="C4_qE7LHH-83N8kk69I4-2" target="C4_qE7LHH-83N8kk69I4-12">
          <mxGeometry relative="1" as="geometry">
            <Array as="points">
              <mxPoint x="560" y="850" />
              <mxPoint x="560" y="910" />
            </Array>
          </mxGeometry>
        </mxCell>
        <mxCell id="C4_qE7LHH-83N8kk69I4-2" value="Music&lt;br&gt;Generator" style="rounded=1;whiteSpace=wrap;html=1;fillColor=#dae8fc;strokeColor=#6c8ebf;" vertex="1" parent="1">
          <mxGeometry x="425" y="820" width="120" height="60" as="geometry" />
        </mxCell>
        <mxCell id="C4_qE7LHH-83N8kk69I4-48" style="edgeStyle=orthogonalEdgeStyle;rounded=0;orthogonalLoop=1;jettySize=auto;html=1;" edge="1" parent="1" source="C4_qE7LHH-83N8kk69I4-6" target="C4_qE7LHH-83N8kk69I4-44">
          <mxGeometry relative="1" as="geometry">
            <Array as="points">
              <mxPoint x="890" y="853" />
              <mxPoint x="890" y="793" />
            </Array>
          </mxGeometry>
        </mxCell>
        <mxCell id="C4_qE7LHH-83N8kk69I4-49" style="edgeStyle=orthogonalEdgeStyle;rounded=0;orthogonalLoop=1;jettySize=auto;html=1;" edge="1" parent="1" source="C4_qE7LHH-83N8kk69I4-6" target="C4_qE7LHH-83N8kk69I4-45">
          <mxGeometry relative="1" as="geometry">
            <Array as="points">
              <mxPoint x="890" y="853" />
              <mxPoint x="890" y="833" />
            </Array>
          </mxGeometry>
        </mxCell>
        <mxCell id="C4_qE7LHH-83N8kk69I4-50" style="edgeStyle=orthogonalEdgeStyle;rounded=0;orthogonalLoop=1;jettySize=auto;html=1;" edge="1" parent="1" source="C4_qE7LHH-83N8kk69I4-6" target="C4_qE7LHH-83N8kk69I4-47">
          <mxGeometry relative="1" as="geometry">
            <Array as="points">
              <mxPoint x="890" y="853" />
              <mxPoint x="890" y="873" />
            </Array>
          </mxGeometry>
        </mxCell>
        <mxCell id="C4_qE7LHH-83N8kk69I4-51" style="edgeStyle=orthogonalEdgeStyle;rounded=0;orthogonalLoop=1;jettySize=auto;html=1;" edge="1" parent="1" source="C4_qE7LHH-83N8kk69I4-6" target="C4_qE7LHH-83N8kk69I4-46">
          <mxGeometry relative="1" as="geometry">
            <Array as="points">
              <mxPoint x="890" y="853" />
              <mxPoint x="890" y="913" />
            </Array>
          </mxGeometry>
        </mxCell>
        <mxCell id="C4_qE7LHH-83N8kk69I4-55" value="Produce" style="edgeLabel;html=1;align=center;verticalAlign=middle;resizable=0;points=[];" vertex="1" connectable="0" parent="C4_qE7LHH-83N8kk69I4-51">
          <mxGeometry x="-0.7411" relative="1" as="geometry">
            <mxPoint x="7" y="-9" as="offset" />
          </mxGeometry>
        </mxCell>
        <mxCell id="C4_qE7LHH-83N8kk69I4-6" value="User" style="shape=umlActor;verticalLabelPosition=bottom;verticalAlign=top;html=1;outlineConnect=0;" vertex="1" parent="1">
          <mxGeometry x="805" y="822.5" width="30" height="60" as="geometry" />
        </mxCell>
        <mxCell id="C4_qE7LHH-83N8kk69I4-40" style="edgeStyle=orthogonalEdgeStyle;rounded=0;orthogonalLoop=1;jettySize=auto;html=1;" edge="1" parent="1" source="C4_qE7LHH-83N8kk69I4-10" target="C4_qE7LHH-83N8kk69I4-6">
          <mxGeometry relative="1" as="geometry">
            <Array as="points">
              <mxPoint x="750" y="790" />
              <mxPoint x="750" y="850" />
            </Array>
          </mxGeometry>
        </mxCell>
        <mxCell id="C4_qE7LHH-83N8kk69I4-10" value="MUSIC 1" style="shape=parallelogram;perimeter=parallelogramPerimeter;whiteSpace=wrap;html=1;fixedSize=1;fillColor=#ffe6cc;strokeColor=#d79b00;" vertex="1" parent="1">
          <mxGeometry x="585" y="775" width="130" height="30" as="geometry" />
        </mxCell>
        <mxCell id="C4_qE7LHH-83N8kk69I4-41" style="edgeStyle=orthogonalEdgeStyle;rounded=0;orthogonalLoop=1;jettySize=auto;html=1;" edge="1" parent="1" source="C4_qE7LHH-83N8kk69I4-11" target="C4_qE7LHH-83N8kk69I4-6">
          <mxGeometry relative="1" as="geometry">
            <Array as="points">
              <mxPoint x="750" y="830" />
              <mxPoint x="750" y="850" />
            </Array>
          </mxGeometry>
        </mxCell>
        <mxCell id="C4_qE7LHH-83N8kk69I4-11" value="MUSIC 2" style="shape=parallelogram;perimeter=parallelogramPerimeter;whiteSpace=wrap;html=1;fixedSize=1;fillColor=#ffe6cc;strokeColor=#d79b00;" vertex="1" parent="1">
          <mxGeometry x="585" y="815" width="130" height="30" as="geometry" />
        </mxCell>
        <mxCell id="C4_qE7LHH-83N8kk69I4-43" style="edgeStyle=orthogonalEdgeStyle;rounded=0;orthogonalLoop=1;jettySize=auto;html=1;" edge="1" parent="1" source="C4_qE7LHH-83N8kk69I4-12" target="C4_qE7LHH-83N8kk69I4-6">
          <mxGeometry relative="1" as="geometry">
            <mxPoint x="790" y="850" as="targetPoint" />
            <Array as="points">
              <mxPoint x="750" y="910" />
              <mxPoint x="750" y="850" />
            </Array>
          </mxGeometry>
        </mxCell>
        <mxCell id="C4_qE7LHH-83N8kk69I4-12" value="MUSIC N" style="shape=parallelogram;perimeter=parallelogramPerimeter;whiteSpace=wrap;html=1;fixedSize=1;fillColor=#ffe6cc;strokeColor=#d79b00;" vertex="1" parent="1">
          <mxGeometry x="585" y="895" width="130" height="30" as="geometry" />
        </mxCell>
        <mxCell id="C4_qE7LHH-83N8kk69I4-42" style="edgeStyle=orthogonalEdgeStyle;rounded=0;orthogonalLoop=1;jettySize=auto;html=1;" edge="1" parent="1" source="C4_qE7LHH-83N8kk69I4-35" target="C4_qE7LHH-83N8kk69I4-6">
          <mxGeometry relative="1" as="geometry">
            <Array as="points">
              <mxPoint x="750" y="870" />
              <mxPoint x="750" y="850" />
            </Array>
          </mxGeometry>
        </mxCell>
        <mxCell id="C4_qE7LHH-83N8kk69I4-54" value="Listen" style="edgeLabel;html=1;align=center;verticalAlign=middle;resizable=0;points=[];" vertex="1" connectable="0" parent="C4_qE7LHH-83N8kk69I4-42">
          <mxGeometry x="0.4842" relative="1" as="geometry">
            <mxPoint y="-8" as="offset" />
          </mxGeometry>
        </mxCell>
        <mxCell id="C4_qE7LHH-83N8kk69I4-35" value=". . ." style="shape=parallelogram;perimeter=parallelogramPerimeter;whiteSpace=wrap;html=1;fixedSize=1;fillColor=#ffe6cc;strokeColor=#d79b00;" vertex="1" parent="1">
          <mxGeometry x="585" y="855" width="130" height="30" as="geometry" />
        </mxCell>
        <mxCell id="C4_qE7LHH-83N8kk69I4-56" style="edgeStyle=orthogonalEdgeStyle;rounded=0;orthogonalLoop=1;jettySize=auto;html=1;" edge="1" parent="1" source="C4_qE7LHH-83N8kk69I4-44" target="C4_qE7LHH-83N8kk69I4-52">
          <mxGeometry relative="1" as="geometry" />
        </mxCell>
        <mxCell id="C4_qE7LHH-83N8kk69I4-44" value="MUSIC 1&lt;div&gt;+ Feedback&lt;/div&gt;" style="shape=parallelogram;perimeter=parallelogramPerimeter;whiteSpace=wrap;html=1;fixedSize=1;fillColor=#f8cecc;strokeColor=#b85450;" vertex="1" parent="1">
          <mxGeometry x="920" y="777.5" width="130" height="30" as="geometry" />
        </mxCell>
        <mxCell id="C4_qE7LHH-83N8kk69I4-57" style="edgeStyle=orthogonalEdgeStyle;rounded=0;orthogonalLoop=1;jettySize=auto;html=1;" edge="1" parent="1" source="C4_qE7LHH-83N8kk69I4-45" target="C4_qE7LHH-83N8kk69I4-52">
          <mxGeometry relative="1" as="geometry" />
        </mxCell>
        <mxCell id="C4_qE7LHH-83N8kk69I4-45" value="MUSIC 2&lt;div&gt;+ Feedback&lt;/div&gt;" style="shape=parallelogram;perimeter=parallelogramPerimeter;whiteSpace=wrap;html=1;fixedSize=1;fillColor=#f8cecc;strokeColor=#b85450;" vertex="1" parent="1">
          <mxGeometry x="920" y="817.5" width="130" height="30" as="geometry" />
        </mxCell>
        <mxCell id="C4_qE7LHH-83N8kk69I4-59" style="edgeStyle=orthogonalEdgeStyle;rounded=0;orthogonalLoop=1;jettySize=auto;html=1;" edge="1" parent="1" source="C4_qE7LHH-83N8kk69I4-46" target="C4_qE7LHH-83N8kk69I4-52">
          <mxGeometry relative="1" as="geometry" />
        </mxCell>
        <mxCell id="C4_qE7LHH-83N8kk69I4-46" value="MUSIC N&lt;div&gt;+ Feedback&lt;/div&gt;" style="shape=parallelogram;perimeter=parallelogramPerimeter;whiteSpace=wrap;html=1;fixedSize=1;fillColor=#f8cecc;strokeColor=#b85450;" vertex="1" parent="1">
          <mxGeometry x="920" y="897.5" width="130" height="30" as="geometry" />
        </mxCell>
        <mxCell id="C4_qE7LHH-83N8kk69I4-58" style="edgeStyle=orthogonalEdgeStyle;rounded=0;orthogonalLoop=1;jettySize=auto;html=1;" edge="1" parent="1" source="C4_qE7LHH-83N8kk69I4-47" target="C4_qE7LHH-83N8kk69I4-52">
          <mxGeometry relative="1" as="geometry" />
        </mxCell>
        <mxCell id="C4_qE7LHH-83N8kk69I4-60" value="Train" style="edgeLabel;html=1;align=center;verticalAlign=middle;resizable=0;points=[];" vertex="1" connectable="0" parent="C4_qE7LHH-83N8kk69I4-58">
          <mxGeometry x="0.5467" relative="1" as="geometry">
            <mxPoint x="11" y="-15" as="offset" />
          </mxGeometry>
        </mxCell>
        <mxCell id="C4_qE7LHH-83N8kk69I4-47" value=". . ." style="shape=parallelogram;perimeter=parallelogramPerimeter;whiteSpace=wrap;html=1;fixedSize=1;fillColor=#f8cecc;strokeColor=#b85450;" vertex="1" parent="1">
          <mxGeometry x="920" y="857.5" width="130" height="30" as="geometry" />
        </mxCell>
        <mxCell id="C4_qE7LHH-83N8kk69I4-63" style="edgeStyle=orthogonalEdgeStyle;rounded=0;orthogonalLoop=1;jettySize=auto;html=1;entryX=1;entryY=0.75;entryDx=0;entryDy=0;" edge="1" parent="1" source="C4_qE7LHH-83N8kk69I4-52" target="C4_qE7LHH-83N8kk69I4-61">
          <mxGeometry relative="1" as="geometry">
            <Array as="points">
              <mxPoint x="1200" y="1025" />
            </Array>
          </mxGeometry>
        </mxCell>
        <mxCell id="C4_qE7LHH-83N8kk69I4-52" value="" style="ellipse;shape=cloud;whiteSpace=wrap;html=1;" vertex="1" parent="1">
          <mxGeometry x="1123" y="762.5" width="140" height="175" as="geometry" />
        </mxCell>
        <mxCell id="C4_qE7LHH-83N8kk69I4-53" value="Approx&lt;br&gt;User" style="shape=umlActor;verticalLabelPosition=bottom;verticalAlign=top;html=1;outlineConnect=0;" vertex="1" parent="1">
          <mxGeometry x="1178" y="817.5" width="30" height="60" as="geometry" />
        </mxCell>
        <mxCell id="C4_qE7LHH-83N8kk69I4-61" value="Evolution&lt;br&gt;Module" style="rounded=1;whiteSpace=wrap;html=1;fillColor=#d5e8d4;strokeColor=#82b366;" vertex="1" parent="1">
          <mxGeometry x="730" y="980" width="120" height="60" as="geometry" />
        </mxCell>
        <mxCell id="C4_qE7LHH-83N8kk69I4-65" style="edgeStyle=orthogonalEdgeStyle;rounded=0;orthogonalLoop=1;jettySize=auto;html=1;entryX=0;entryY=0.5;entryDx=0;entryDy=0;" edge="1" parent="1" source="C4_qE7LHH-83N8kk69I4-64" target="C4_qE7LHH-83N8kk69I4-2">
          <mxGeometry relative="1" as="geometry" />
        </mxCell>
        <mxCell id="C4_qE7LHH-83N8kk69I4-66" style="edgeStyle=orthogonalEdgeStyle;rounded=0;orthogonalLoop=1;jettySize=auto;html=1;exitX=0.75;exitY=1;exitDx=0;exitDy=0;entryX=1;entryY=0.25;entryDx=0;entryDy=0;" edge="1" parent="1" source="C4_qE7LHH-83N8kk69I4-64" target="C4_qE7LHH-83N8kk69I4-61">
          <mxGeometry relative="1" as="geometry">
            <Array as="points">
              <mxPoint x="360" y="867" />
              <mxPoint x="360" y="950" />
              <mxPoint x="985" y="950" />
              <mxPoint x="985" y="995" />
            </Array>
          </mxGeometry>
        </mxCell>
        <mxCell id="C4_qE7LHH-83N8kk69I4-64" value="Music Prompts&lt;br&gt;Population" style="rounded=1;whiteSpace=wrap;html=1;fillColor=#fff2cc;strokeColor=#d6b656;" vertex="1" parent="1">
          <mxGeometry x="280" y="832.5" width="108" height="35" as="geometry" />
        </mxCell>
        <mxCell id="C4_qE7LHH-83N8kk69I4-71" style="edgeStyle=orthogonalEdgeStyle;rounded=0;orthogonalLoop=1;jettySize=auto;html=1;entryX=0.5;entryY=1;entryDx=0;entryDy=0;" edge="1" parent="1" source="C4_qE7LHH-83N8kk69I4-69" target="C4_qE7LHH-83N8kk69I4-61">
          <mxGeometry relative="1" as="geometry">
            <Array as="points">
              <mxPoint x="590" y="1060" />
              <mxPoint x="790" y="1060" />
            </Array>
          </mxGeometry>
        </mxCell>
        <mxCell id="C4_qE7LHH-83N8kk69I4-72" value="NO" style="edgeLabel;html=1;align=center;verticalAlign=middle;resizable=0;points=[];" vertex="1" connectable="0" parent="C4_qE7LHH-83N8kk69I4-71">
          <mxGeometry x="-0.0529" y="1" relative="1" as="geometry">
            <mxPoint x="-94" as="offset" />
          </mxGeometry>
        </mxCell>
        <mxCell id="C4_qE7LHH-83N8kk69I4-73" style="edgeStyle=orthogonalEdgeStyle;rounded=0;orthogonalLoop=1;jettySize=auto;html=1;entryX=0.25;entryY=1;entryDx=0;entryDy=0;" edge="1" parent="1" source="C4_qE7LHH-83N8kk69I4-69" target="C4_qE7LHH-83N8kk69I4-64">
          <mxGeometry relative="1" as="geometry" />
        </mxCell>
        <mxCell id="C4_qE7LHH-83N8kk69I4-74" value="YES" style="edgeLabel;html=1;align=center;verticalAlign=middle;resizable=0;points=[];" vertex="1" connectable="0" parent="C4_qE7LHH-83N8kk69I4-73">
          <mxGeometry x="-0.7957" y="2" relative="1" as="geometry">
            <mxPoint as="offset" />
          </mxGeometry>
        </mxCell>
        <mxCell id="C4_qE7LHH-83N8kk69I4-69" value="Satisfactory&lt;br&gt;Results" style="strokeWidth=2;html=1;shape=mxgraph.flowchart.decision;whiteSpace=wrap;fillColor=#e1d5e7;strokeColor=#9673a6;" vertex="1" parent="1">
          <mxGeometry x="530" y="980" width="120" height="60" as="geometry" />
        </mxCell>
        <mxCell id="C4_qE7LHH-83N8kk69I4-70" style="edgeStyle=orthogonalEdgeStyle;rounded=0;orthogonalLoop=1;jettySize=auto;html=1;entryX=1;entryY=0.5;entryDx=0;entryDy=0;entryPerimeter=0;" edge="1" parent="1" source="C4_qE7LHH-83N8kk69I4-61" target="C4_qE7LHH-83N8kk69I4-69">
          <mxGeometry relative="1" as="geometry" />
        </mxCell>
        <mxCell id="C4_qE7LHH-83N8kk69I4-78" value="&lt;b&gt;&lt;font style=&quot;font-size: 18px;&quot;&gt;Simulated User experience&lt;/font&gt;&lt;/b&gt;" style="text;html=1;align=center;verticalAlign=middle;whiteSpace=wrap;rounded=0;" vertex="1" parent="1">
          <mxGeometry x="640" y="1130" width="300" height="30" as="geometry" />
        </mxCell>
        <mxCell id="C4_qE7LHH-83N8kk69I4-79" style="edgeStyle=orthogonalEdgeStyle;rounded=0;orthogonalLoop=1;jettySize=auto;html=1;" edge="1" parent="1" source="C4_qE7LHH-83N8kk69I4-83" target="C4_qE7LHH-83N8kk69I4-91">
          <mxGeometry relative="1" as="geometry">
            <Array as="points">
              <mxPoint x="503" y="1265" />
              <mxPoint x="503" y="1205" />
            </Array>
          </mxGeometry>
        </mxCell>
        <mxCell id="C4_qE7LHH-83N8kk69I4-80" style="edgeStyle=orthogonalEdgeStyle;rounded=0;orthogonalLoop=1;jettySize=auto;html=1;" edge="1" parent="1" source="C4_qE7LHH-83N8kk69I4-83" target="C4_qE7LHH-83N8kk69I4-93">
          <mxGeometry relative="1" as="geometry">
            <Array as="points">
              <mxPoint x="503" y="1265" />
              <mxPoint x="503" y="1245" />
            </Array>
          </mxGeometry>
        </mxCell>
        <mxCell id="C4_qE7LHH-83N8kk69I4-81" style="edgeStyle=orthogonalEdgeStyle;rounded=0;orthogonalLoop=1;jettySize=auto;html=1;" edge="1" parent="1" source="C4_qE7LHH-83N8kk69I4-83" target="C4_qE7LHH-83N8kk69I4-98">
          <mxGeometry relative="1" as="geometry">
            <Array as="points">
              <mxPoint x="503" y="1265" />
              <mxPoint x="503" y="1285" />
            </Array>
          </mxGeometry>
        </mxCell>
        <mxCell id="C4_qE7LHH-83N8kk69I4-82" style="edgeStyle=orthogonalEdgeStyle;rounded=0;orthogonalLoop=1;jettySize=auto;html=1;" edge="1" parent="1" source="C4_qE7LHH-83N8kk69I4-83" target="C4_qE7LHH-83N8kk69I4-95">
          <mxGeometry relative="1" as="geometry">
            <Array as="points">
              <mxPoint x="503" y="1265" />
              <mxPoint x="503" y="1325" />
            </Array>
          </mxGeometry>
        </mxCell>
        <mxCell id="C4_qE7LHH-83N8kk69I4-83" value="Music&lt;br&gt;Generator" style="rounded=1;whiteSpace=wrap;html=1;fillColor=#dae8fc;strokeColor=#6c8ebf;" vertex="1" parent="1">
          <mxGeometry x="368" y="1235" width="120" height="60" as="geometry" />
        </mxCell>
        <mxCell id="C4_qE7LHH-83N8kk69I4-84" style="edgeStyle=orthogonalEdgeStyle;rounded=0;orthogonalLoop=1;jettySize=auto;html=1;" edge="1" parent="1" source="C4_qE7LHH-83N8kk69I4-124" target="C4_qE7LHH-83N8kk69I4-100">
          <mxGeometry relative="1" as="geometry">
            <Array as="points">
              <mxPoint x="955" y="1268" />
              <mxPoint x="955" y="1208" />
            </Array>
            <mxPoint x="830" y="1268.0000000000005" as="sourcePoint" />
          </mxGeometry>
        </mxCell>
        <mxCell id="C4_qE7LHH-83N8kk69I4-85" style="edgeStyle=orthogonalEdgeStyle;rounded=0;orthogonalLoop=1;jettySize=auto;html=1;" edge="1" parent="1" source="C4_qE7LHH-83N8kk69I4-124" target="C4_qE7LHH-83N8kk69I4-102">
          <mxGeometry relative="1" as="geometry">
            <Array as="points">
              <mxPoint x="955" y="1268" />
              <mxPoint x="955" y="1248" />
            </Array>
            <mxPoint x="830" y="1268.0000000000005" as="sourcePoint" />
          </mxGeometry>
        </mxCell>
        <mxCell id="C4_qE7LHH-83N8kk69I4-86" style="edgeStyle=orthogonalEdgeStyle;rounded=0;orthogonalLoop=1;jettySize=auto;html=1;" edge="1" parent="1" source="C4_qE7LHH-83N8kk69I4-124" target="C4_qE7LHH-83N8kk69I4-107">
          <mxGeometry relative="1" as="geometry">
            <Array as="points">
              <mxPoint x="955" y="1268" />
              <mxPoint x="955" y="1288" />
            </Array>
            <mxPoint x="830" y="1268.0000000000005" as="sourcePoint" />
          </mxGeometry>
        </mxCell>
        <mxCell id="C4_qE7LHH-83N8kk69I4-87" style="edgeStyle=orthogonalEdgeStyle;rounded=0;orthogonalLoop=1;jettySize=auto;html=1;" edge="1" parent="1" source="C4_qE7LHH-83N8kk69I4-124" target="C4_qE7LHH-83N8kk69I4-104">
          <mxGeometry relative="1" as="geometry">
            <Array as="points">
              <mxPoint x="955" y="1268" />
              <mxPoint x="955" y="1328" />
            </Array>
            <mxPoint x="830" y="1268.0000000000005" as="sourcePoint" />
          </mxGeometry>
        </mxCell>
        <mxCell id="C4_qE7LHH-83N8kk69I4-88" value="Simulate" style="edgeLabel;html=1;align=center;verticalAlign=middle;resizable=0;points=[];" vertex="1" connectable="0" parent="C4_qE7LHH-83N8kk69I4-87">
          <mxGeometry x="-0.7411" relative="1" as="geometry">
            <mxPoint x="7" y="-9" as="offset" />
          </mxGeometry>
        </mxCell>
        <mxCell id="C4_qE7LHH-83N8kk69I4-90" style="edgeStyle=orthogonalEdgeStyle;rounded=0;orthogonalLoop=1;jettySize=auto;html=1;" edge="1" parent="1" source="C4_qE7LHH-83N8kk69I4-91" target="C4_qE7LHH-83N8kk69I4-124">
          <mxGeometry relative="1" as="geometry">
            <Array as="points">
              <mxPoint x="695" y="1205" />
              <mxPoint x="695" y="1265" />
            </Array>
            <mxPoint x="800" y="1265" as="targetPoint" />
          </mxGeometry>
        </mxCell>
        <mxCell id="C4_qE7LHH-83N8kk69I4-91" value="MUSIC 1" style="shape=parallelogram;perimeter=parallelogramPerimeter;whiteSpace=wrap;html=1;fixedSize=1;fillColor=#ffe6cc;strokeColor=#d79b00;" vertex="1" parent="1">
          <mxGeometry x="528" y="1190" width="130" height="30" as="geometry" />
        </mxCell>
        <mxCell id="C4_qE7LHH-83N8kk69I4-92" style="edgeStyle=orthogonalEdgeStyle;rounded=0;orthogonalLoop=1;jettySize=auto;html=1;" edge="1" parent="1" source="C4_qE7LHH-83N8kk69I4-93" target="C4_qE7LHH-83N8kk69I4-124">
          <mxGeometry relative="1" as="geometry">
            <Array as="points">
              <mxPoint x="695" y="1245" />
              <mxPoint x="695" y="1265" />
            </Array>
            <mxPoint x="800" y="1265" as="targetPoint" />
          </mxGeometry>
        </mxCell>
        <mxCell id="C4_qE7LHH-83N8kk69I4-93" value="MUSIC 2" style="shape=parallelogram;perimeter=parallelogramPerimeter;whiteSpace=wrap;html=1;fixedSize=1;fillColor=#ffe6cc;strokeColor=#d79b00;" vertex="1" parent="1">
          <mxGeometry x="528" y="1230" width="130" height="30" as="geometry" />
        </mxCell>
        <mxCell id="C4_qE7LHH-83N8kk69I4-94" style="edgeStyle=orthogonalEdgeStyle;rounded=0;orthogonalLoop=1;jettySize=auto;html=1;" edge="1" parent="1" source="C4_qE7LHH-83N8kk69I4-95" target="C4_qE7LHH-83N8kk69I4-124">
          <mxGeometry relative="1" as="geometry">
            <mxPoint x="800" y="1265" as="targetPoint" />
            <Array as="points">
              <mxPoint x="695" y="1325" />
              <mxPoint x="695" y="1265" />
            </Array>
          </mxGeometry>
        </mxCell>
        <mxCell id="C4_qE7LHH-83N8kk69I4-95" value="MUSIC N" style="shape=parallelogram;perimeter=parallelogramPerimeter;whiteSpace=wrap;html=1;fixedSize=1;fillColor=#ffe6cc;strokeColor=#d79b00;" vertex="1" parent="1">
          <mxGeometry x="528" y="1310" width="130" height="30" as="geometry" />
        </mxCell>
        <mxCell id="C4_qE7LHH-83N8kk69I4-127" style="edgeStyle=orthogonalEdgeStyle;rounded=0;orthogonalLoop=1;jettySize=auto;html=1;" edge="1" parent="1" source="C4_qE7LHH-83N8kk69I4-98" target="C4_qE7LHH-83N8kk69I4-124">
          <mxGeometry relative="1" as="geometry">
            <Array as="points">
              <mxPoint x="695" y="1285" />
              <mxPoint x="695" y="1265" />
            </Array>
          </mxGeometry>
        </mxCell>
        <mxCell id="C4_qE7LHH-83N8kk69I4-128" value="Score" style="edgeLabel;html=1;align=center;verticalAlign=middle;resizable=0;points=[];" vertex="1" connectable="0" parent="C4_qE7LHH-83N8kk69I4-127">
          <mxGeometry x="0.3845" relative="1" as="geometry">
            <mxPoint x="9" y="-10" as="offset" />
          </mxGeometry>
        </mxCell>
        <mxCell id="C4_qE7LHH-83N8kk69I4-98" value=". . ." style="shape=parallelogram;perimeter=parallelogramPerimeter;whiteSpace=wrap;html=1;fixedSize=1;fillColor=#ffe6cc;strokeColor=#d79b00;" vertex="1" parent="1">
          <mxGeometry x="528" y="1270" width="130" height="30" as="geometry" />
        </mxCell>
        <mxCell id="C4_qE7LHH-83N8kk69I4-99" style="edgeStyle=orthogonalEdgeStyle;rounded=0;orthogonalLoop=1;jettySize=auto;html=1;" edge="1" parent="1" source="C4_qE7LHH-83N8kk69I4-100" target="C4_qE7LHH-83N8kk69I4-109">
          <mxGeometry relative="1" as="geometry" />
        </mxCell>
        <mxCell id="C4_qE7LHH-83N8kk69I4-100" value="MUSIC 1&lt;div&gt;+ Feedback&lt;/div&gt;" style="shape=parallelogram;perimeter=parallelogramPerimeter;whiteSpace=wrap;html=1;fixedSize=1;fillColor=#f8cecc;strokeColor=#b85450;" vertex="1" parent="1">
          <mxGeometry x="975" y="1205" width="130" height="30" as="geometry" />
        </mxCell>
        <mxCell id="C4_qE7LHH-83N8kk69I4-101" style="edgeStyle=orthogonalEdgeStyle;rounded=0;orthogonalLoop=1;jettySize=auto;html=1;" edge="1" parent="1" source="C4_qE7LHH-83N8kk69I4-102" target="C4_qE7LHH-83N8kk69I4-109">
          <mxGeometry relative="1" as="geometry" />
        </mxCell>
        <mxCell id="C4_qE7LHH-83N8kk69I4-102" value="MUSIC 2&lt;div&gt;+ Feedback&lt;/div&gt;" style="shape=parallelogram;perimeter=parallelogramPerimeter;whiteSpace=wrap;html=1;fixedSize=1;fillColor=#f8cecc;strokeColor=#b85450;" vertex="1" parent="1">
          <mxGeometry x="975" y="1245" width="130" height="30" as="geometry" />
        </mxCell>
        <mxCell id="C4_qE7LHH-83N8kk69I4-103" style="edgeStyle=orthogonalEdgeStyle;rounded=0;orthogonalLoop=1;jettySize=auto;html=1;" edge="1" parent="1" source="C4_qE7LHH-83N8kk69I4-104" target="C4_qE7LHH-83N8kk69I4-109">
          <mxGeometry relative="1" as="geometry" />
        </mxCell>
        <mxCell id="C4_qE7LHH-83N8kk69I4-104" value="MUSIC N&lt;div&gt;+ Feedback&lt;/div&gt;" style="shape=parallelogram;perimeter=parallelogramPerimeter;whiteSpace=wrap;html=1;fixedSize=1;fillColor=#f8cecc;strokeColor=#b85450;" vertex="1" parent="1">
          <mxGeometry x="975" y="1325" width="130" height="30" as="geometry" />
        </mxCell>
        <mxCell id="C4_qE7LHH-83N8kk69I4-105" style="edgeStyle=orthogonalEdgeStyle;rounded=0;orthogonalLoop=1;jettySize=auto;html=1;" edge="1" parent="1" source="C4_qE7LHH-83N8kk69I4-107" target="C4_qE7LHH-83N8kk69I4-109">
          <mxGeometry relative="1" as="geometry" />
        </mxCell>
        <mxCell id="C4_qE7LHH-83N8kk69I4-106" value="Train" style="edgeLabel;html=1;align=center;verticalAlign=middle;resizable=0;points=[];" vertex="1" connectable="0" parent="C4_qE7LHH-83N8kk69I4-105">
          <mxGeometry x="0.5467" relative="1" as="geometry">
            <mxPoint x="11" y="-15" as="offset" />
          </mxGeometry>
        </mxCell>
        <mxCell id="C4_qE7LHH-83N8kk69I4-107" value=". . ." style="shape=parallelogram;perimeter=parallelogramPerimeter;whiteSpace=wrap;html=1;fixedSize=1;fillColor=#f8cecc;strokeColor=#b85450;" vertex="1" parent="1">
          <mxGeometry x="975" y="1285" width="130" height="30" as="geometry" />
        </mxCell>
        <mxCell id="C4_qE7LHH-83N8kk69I4-108" style="edgeStyle=orthogonalEdgeStyle;rounded=0;orthogonalLoop=1;jettySize=auto;html=1;entryX=1;entryY=0.75;entryDx=0;entryDy=0;exitX=0.55;exitY=0.95;exitDx=0;exitDy=0;exitPerimeter=0;" edge="1" parent="1" source="C4_qE7LHH-83N8kk69I4-109" target="C4_qE7LHH-83N8kk69I4-111">
          <mxGeometry relative="1" as="geometry">
            <Array as="points">
              <mxPoint x="1255" y="1440" />
            </Array>
          </mxGeometry>
        </mxCell>
        <mxCell id="C4_qE7LHH-83N8kk69I4-109" value="" style="ellipse;shape=cloud;whiteSpace=wrap;html=1;" vertex="1" parent="1">
          <mxGeometry x="1178" y="1190" width="140" height="175" as="geometry" />
        </mxCell>
        <mxCell id="C4_qE7LHH-83N8kk69I4-110" value="Approx&lt;br&gt;User" style="shape=umlActor;verticalLabelPosition=bottom;verticalAlign=top;html=1;outlineConnect=0;" vertex="1" parent="1">
          <mxGeometry x="1233" y="1245" width="30" height="60" as="geometry" />
        </mxCell>
        <mxCell id="C4_qE7LHH-83N8kk69I4-111" value="Evolution&lt;br&gt;Module" style="rounded=1;whiteSpace=wrap;html=1;fillColor=#d5e8d4;strokeColor=#82b366;" vertex="1" parent="1">
          <mxGeometry x="673" y="1395" width="120" height="60" as="geometry" />
        </mxCell>
        <mxCell id="C4_qE7LHH-83N8kk69I4-112" style="edgeStyle=orthogonalEdgeStyle;rounded=0;orthogonalLoop=1;jettySize=auto;html=1;entryX=0;entryY=0.5;entryDx=0;entryDy=0;" edge="1" parent="1" source="C4_qE7LHH-83N8kk69I4-114" target="C4_qE7LHH-83N8kk69I4-83">
          <mxGeometry relative="1" as="geometry" />
        </mxCell>
        <mxCell id="C4_qE7LHH-83N8kk69I4-113" style="edgeStyle=orthogonalEdgeStyle;rounded=0;orthogonalLoop=1;jettySize=auto;html=1;exitX=0.75;exitY=1;exitDx=0;exitDy=0;entryX=1;entryY=0.25;entryDx=0;entryDy=0;" edge="1" parent="1" source="C4_qE7LHH-83N8kk69I4-114" target="C4_qE7LHH-83N8kk69I4-111">
          <mxGeometry relative="1" as="geometry">
            <Array as="points">
              <mxPoint x="303" y="1282" />
              <mxPoint x="303" y="1365" />
              <mxPoint x="928" y="1365" />
              <mxPoint x="928" y="1410" />
            </Array>
          </mxGeometry>
        </mxCell>
        <mxCell id="C4_qE7LHH-83N8kk69I4-114" value="Music Prompts&lt;br&gt;Population" style="rounded=1;whiteSpace=wrap;html=1;fillColor=#fff2cc;strokeColor=#d6b656;" vertex="1" parent="1">
          <mxGeometry x="223" y="1247.5" width="108" height="35" as="geometry" />
        </mxCell>
        <mxCell id="C4_qE7LHH-83N8kk69I4-115" style="edgeStyle=orthogonalEdgeStyle;rounded=0;orthogonalLoop=1;jettySize=auto;html=1;entryX=0.5;entryY=1;entryDx=0;entryDy=0;" edge="1" parent="1" source="C4_qE7LHH-83N8kk69I4-119" target="C4_qE7LHH-83N8kk69I4-111">
          <mxGeometry relative="1" as="geometry">
            <Array as="points">
              <mxPoint x="533" y="1475" />
              <mxPoint x="733" y="1475" />
            </Array>
          </mxGeometry>
        </mxCell>
        <mxCell id="C4_qE7LHH-83N8kk69I4-116" value="NO" style="edgeLabel;html=1;align=center;verticalAlign=middle;resizable=0;points=[];" vertex="1" connectable="0" parent="C4_qE7LHH-83N8kk69I4-115">
          <mxGeometry x="-0.0529" y="1" relative="1" as="geometry">
            <mxPoint x="-94" as="offset" />
          </mxGeometry>
        </mxCell>
        <mxCell id="C4_qE7LHH-83N8kk69I4-117" style="edgeStyle=orthogonalEdgeStyle;rounded=0;orthogonalLoop=1;jettySize=auto;html=1;entryX=0.25;entryY=1;entryDx=0;entryDy=0;" edge="1" parent="1" source="C4_qE7LHH-83N8kk69I4-119" target="C4_qE7LHH-83N8kk69I4-114">
          <mxGeometry relative="1" as="geometry" />
        </mxCell>
        <mxCell id="C4_qE7LHH-83N8kk69I4-118" value="YES" style="edgeLabel;html=1;align=center;verticalAlign=middle;resizable=0;points=[];" vertex="1" connectable="0" parent="C4_qE7LHH-83N8kk69I4-117">
          <mxGeometry x="-0.7957" y="2" relative="1" as="geometry">
            <mxPoint as="offset" />
          </mxGeometry>
        </mxCell>
        <mxCell id="C4_qE7LHH-83N8kk69I4-119" value="Satisfactory&lt;br&gt;Results" style="strokeWidth=2;html=1;shape=mxgraph.flowchart.decision;whiteSpace=wrap;fillColor=#e1d5e7;strokeColor=#9673a6;" vertex="1" parent="1">
          <mxGeometry x="473" y="1395" width="120" height="60" as="geometry" />
        </mxCell>
        <mxCell id="C4_qE7LHH-83N8kk69I4-120" style="edgeStyle=orthogonalEdgeStyle;rounded=0;orthogonalLoop=1;jettySize=auto;html=1;entryX=1;entryY=0.5;entryDx=0;entryDy=0;entryPerimeter=0;" edge="1" parent="1" source="C4_qE7LHH-83N8kk69I4-111" target="C4_qE7LHH-83N8kk69I4-119">
          <mxGeometry relative="1" as="geometry" />
        </mxCell>
        <mxCell id="C4_qE7LHH-83N8kk69I4-124" value="" style="ellipse;shape=cloud;whiteSpace=wrap;html=1;" vertex="1" parent="1">
          <mxGeometry x="755" y="1177.5" width="140" height="175" as="geometry" />
        </mxCell>
        <mxCell id="C4_qE7LHH-83N8kk69I4-125" value="Pre-trained&lt;br&gt;User" style="shape=umlActor;verticalLabelPosition=bottom;verticalAlign=top;html=1;outlineConnect=0;" vertex="1" parent="1">
          <mxGeometry x="810" y="1232.5" width="30" height="60" as="geometry" />
        </mxCell>
        <mxCell id="C4_qE7LHH-83N8kk69I4-131" style="edgeStyle=orthogonalEdgeStyle;rounded=0;orthogonalLoop=1;jettySize=auto;html=1;exitX=0.875;exitY=0.5;exitDx=0;exitDy=0;exitPerimeter=0;entryX=0.4;entryY=0.1;entryDx=0;entryDy=0;entryPerimeter=0;" edge="1" parent="1" source="C4_qE7LHH-83N8kk69I4-52" target="C4_qE7LHH-83N8kk69I4-52">
          <mxGeometry relative="1" as="geometry">
            <Array as="points">
              <mxPoint x="1283" y="850" />
              <mxPoint x="1283" y="760" />
              <mxPoint x="1179" y="760" />
            </Array>
          </mxGeometry>
        </mxCell>
        <mxCell id="C4_qE7LHH-83N8kk69I4-132" value="Save for next loop" style="edgeLabel;html=1;align=center;verticalAlign=middle;resizable=0;points=[];" vertex="1" connectable="0" parent="C4_qE7LHH-83N8kk69I4-131">
          <mxGeometry x="0.4866" y="1" relative="1" as="geometry">
            <mxPoint x="6" y="-11" as="offset" />
          </mxGeometry>
        </mxCell>
        <mxCell id="C4_qE7LHH-83N8kk69I4-133" style="edgeStyle=orthogonalEdgeStyle;rounded=0;orthogonalLoop=1;jettySize=auto;html=1;entryX=0.464;entryY=0.105;entryDx=0;entryDy=0;entryPerimeter=0;exitX=0.875;exitY=0.5;exitDx=0;exitDy=0;exitPerimeter=0;" edge="1" parent="1" source="C4_qE7LHH-83N8kk69I4-109" target="C4_qE7LHH-83N8kk69I4-109">
          <mxGeometry relative="1" as="geometry">
            <Array as="points">
              <mxPoint x="1345" y="1278" />
              <mxPoint x="1345" y="1185" />
              <mxPoint x="1243" y="1185" />
            </Array>
          </mxGeometry>
        </mxCell>
        <mxCell id="C4_qE7LHH-83N8kk69I4-134" value="Save for next loop" style="edgeLabel;html=1;align=center;verticalAlign=middle;resizable=0;points=[];" vertex="1" connectable="0" parent="C4_qE7LHH-83N8kk69I4-133">
          <mxGeometry x="0.4243" y="1" relative="1" as="geometry">
            <mxPoint y="-10" as="offset" />
          </mxGeometry>
        </mxCell>
        <mxCell id="C4_qE7LHH-83N8kk69I4-138" value="" style="group" vertex="1" connectable="0" parent="1">
          <mxGeometry x="223" y="1620" width="187" height="60" as="geometry" />
        </mxCell>
        <mxCell id="C4_qE7LHH-83N8kk69I4-148" style="edgeStyle=orthogonalEdgeStyle;rounded=0;orthogonalLoop=1;jettySize=auto;html=1;" edge="1" parent="C4_qE7LHH-83N8kk69I4-138" source="C4_qE7LHH-83N8kk69I4-136">
          <mxGeometry relative="1" as="geometry">
            <mxPoint x="237" y="80" as="targetPoint" />
            <Array as="points">
              <mxPoint x="217" y="30" />
              <mxPoint x="217" y="80" />
            </Array>
          </mxGeometry>
        </mxCell>
        <mxCell id="C4_qE7LHH-83N8kk69I4-136" value="&lt;font style=&quot;font-size: 14px;&quot;&gt;SONG 1&lt;/font&gt;" style="rounded=0;whiteSpace=wrap;html=1;fillColor=#d5e8d4;strokeColor=#82b366;" vertex="1" parent="C4_qE7LHH-83N8kk69I4-138">
          <mxGeometry width="187" height="60" as="geometry" />
        </mxCell>
        <mxCell id="C4_qE7LHH-83N8kk69I4-135" value="" style="shape=image;html=1;verticalAlign=top;verticalLabelPosition=bottom;labelBackgroundColor=#ffffff;imageAspect=0;aspect=fixed;image=https://cdn4.iconfinder.com/data/icons/ionicons/512/icon-ios7-musical-notes-128.png" vertex="1" parent="C4_qE7LHH-83N8kk69I4-138">
          <mxGeometry width="60" height="60" as="geometry" />
        </mxCell>
        <mxCell id="C4_qE7LHH-83N8kk69I4-137" value="" style="html=1;shadow=0;dashed=0;align=center;verticalAlign=middle;shape=mxgraph.arrows2.arrow;dy=0.68;dx=28.71;direction=north;notch=0;fillColor=#d5e8d4;strokeColor=#82b366;" vertex="1" parent="C4_qE7LHH-83N8kk69I4-138">
          <mxGeometry x="138" y="5" width="39" height="50" as="geometry" />
        </mxCell>
        <mxCell id="C4_qE7LHH-83N8kk69I4-139" value="" style="group;fillColor=#f8cecc;strokeColor=#b85450;" vertex="1" connectable="0" parent="1">
          <mxGeometry x="223" y="1710" width="187" height="60" as="geometry" />
        </mxCell>
        <mxCell id="C4_qE7LHH-83N8kk69I4-149" style="edgeStyle=orthogonalEdgeStyle;rounded=0;orthogonalLoop=1;jettySize=auto;html=1;" edge="1" parent="C4_qE7LHH-83N8kk69I4-139" source="C4_qE7LHH-83N8kk69I4-140">
          <mxGeometry relative="1" as="geometry">
            <mxPoint x="237" y="-10" as="targetPoint" />
            <Array as="points">
              <mxPoint x="217" y="30" />
              <mxPoint x="217" y="-10" />
            </Array>
          </mxGeometry>
        </mxCell>
        <mxCell id="C4_qE7LHH-83N8kk69I4-140" value="&lt;font style=&quot;font-size: 14px;&quot;&gt;SONG 2&lt;/font&gt;" style="rounded=0;whiteSpace=wrap;html=1;fillColor=#f8cecc;strokeColor=#b85450;" vertex="1" parent="C4_qE7LHH-83N8kk69I4-139">
          <mxGeometry width="187" height="60" as="geometry" />
        </mxCell>
        <mxCell id="C4_qE7LHH-83N8kk69I4-141" value="" style="shape=image;html=1;verticalAlign=top;verticalLabelPosition=bottom;labelBackgroundColor=#ffffff;imageAspect=0;aspect=fixed;image=https://cdn4.iconfinder.com/data/icons/ionicons/512/icon-ios7-musical-notes-128.png" vertex="1" parent="C4_qE7LHH-83N8kk69I4-139">
          <mxGeometry width="60" height="60" as="geometry" />
        </mxCell>
        <mxCell id="C4_qE7LHH-83N8kk69I4-142" value="" style="html=1;shadow=0;dashed=0;align=center;verticalAlign=middle;shape=mxgraph.arrows2.arrow;dy=0.68;dx=28.71;direction=north;notch=0;fillColor=#f8cecc;strokeColor=#b85450;rotation=-180;" vertex="1" parent="C4_qE7LHH-83N8kk69I4-139">
          <mxGeometry x="138" y="5" width="39" height="50" as="geometry" />
        </mxCell>
        <mxCell id="C4_qE7LHH-83N8kk69I4-144" value="" style="shape=umlActor;verticalLabelPosition=bottom;verticalAlign=top;html=1;outlineConnect=0;fillColor=light-dark(#ebee11, #ededed);" vertex="1" parent="1">
          <mxGeometry x="238" y="1805" width="22" height="50" as="geometry" />
        </mxCell>
        <mxCell id="C4_qE7LHH-83N8kk69I4-146" value="" style="shape=flexArrow;endArrow=classic;html=1;rounded=0;fillColor=#f5f5f5;strokeColor=#666666;" edge="1" parent="1">
          <mxGeometry width="50" height="50" relative="1" as="geometry">
            <mxPoint x="460" y="1700" as="sourcePoint" />
            <mxPoint x="580" y="1700" as="targetPoint" />
          </mxGeometry>
        </mxCell>
        <mxCell id="C4_qE7LHH-83N8kk69I4-147" value="MUSIC&lt;br&gt;PROJECTION" style="edgeLabel;html=1;align=center;verticalAlign=middle;resizable=0;points=[];" vertex="1" connectable="0" parent="C4_qE7LHH-83N8kk69I4-146">
          <mxGeometry x="-0.5267" y="1" relative="1" as="geometry">
            <mxPoint x="20" y="1" as="offset" />
          </mxGeometry>
        </mxCell>
        <mxCell id="C4_qE7LHH-83N8kk69I4-150" value="" style="shape=flexArrow;endArrow=classic;html=1;rounded=0;fillColor=#ffe6cc;strokeColor=#d79b00;" edge="1" parent="1">
          <mxGeometry width="50" height="50" relative="1" as="geometry">
            <mxPoint x="460" y="1829.6" as="sourcePoint" />
            <mxPoint x="580" y="1829.6" as="targetPoint" />
          </mxGeometry>
        </mxCell>
        <mxCell id="C4_qE7LHH-83N8kk69I4-151" value="USER&lt;br&gt;PROJECTION" style="edgeLabel;html=1;align=center;verticalAlign=middle;resizable=0;points=[];" vertex="1" connectable="0" parent="C4_qE7LHH-83N8kk69I4-150">
          <mxGeometry x="-0.5267" y="1" relative="1" as="geometry">
            <mxPoint x="20" y="1" as="offset" />
          </mxGeometry>
        </mxCell>
        <mxCell id="C4_qE7LHH-83N8kk69I4-154" value="" style="shape=flexArrow;endArrow=classic;html=1;rounded=0;width=5.2631578947368425;endSize=6.352631578947369;fillColor=#000000;strokeColor=#000000;" edge="1" parent="1">
          <mxGeometry width="50" height="50" relative="1" as="geometry">
            <mxPoint x="750" y="1880" as="sourcePoint" />
            <mxPoint x="750" y="1600" as="targetPoint" />
          </mxGeometry>
        </mxCell>
        <mxCell id="C4_qE7LHH-83N8kk69I4-155" value="" style="shape=flexArrow;endArrow=classic;html=1;rounded=0;width=5.2631578947368425;endSize=6.594736842105263;fillColor=#000000;strokeColor=#000000;" edge="1" parent="1">
          <mxGeometry width="50" height="50" relative="1" as="geometry">
            <mxPoint x="590" y="1739.6" as="sourcePoint" />
            <mxPoint x="910" y="1739.6" as="targetPoint" />
          </mxGeometry>
        </mxCell>
        <mxCell id="C4_qE7LHH-83N8kk69I4-156" value="" style="shape=umlActor;verticalLabelPosition=bottom;verticalAlign=top;html=1;outlineConnect=0;fillColor=light-dark(#ebee11, #ededed);" vertex="1" parent="1">
          <mxGeometry x="830" y="1650" width="15" height="20" as="geometry" />
        </mxCell>
        <mxCell id="C4_qE7LHH-83N8kk69I4-163" value="" style="endArrow=classic;html=1;rounded=0;strokeColor=#FF0000;exitX=0.959;exitY=0.658;exitDx=0;exitDy=0;exitPerimeter=0;entryX=0.881;entryY=0.19;entryDx=0;entryDy=0;entryPerimeter=0;" edge="1" parent="1" source="C4_qE7LHH-83N8kk69I4-160" target="C4_qE7LHH-83N8kk69I4-160">
          <mxGeometry width="50" height="50" relative="1" as="geometry">
            <mxPoint x="840" y="1770" as="sourcePoint" />
            <mxPoint x="820" y="1680" as="targetPoint" />
          </mxGeometry>
        </mxCell>
        <mxCell id="C4_qE7LHH-83N8kk69I4-164" value="" style="endArrow=classic;html=1;rounded=0;fillColor=#d5e8d4;strokeColor=#82b366;entryX=0.087;entryY=0.222;entryDx=0;entryDy=0;entryPerimeter=0;" edge="1" parent="1" target="C4_qE7LHH-83N8kk69I4-160">
          <mxGeometry width="50" height="50" relative="1" as="geometry">
            <mxPoint x="830" y="1670" as="sourcePoint" />
            <mxPoint x="670" y="1680" as="targetPoint" />
          </mxGeometry>
        </mxCell>
      </root>
    </mxGraphModel>
  </diagram>
</mxfile>
